<svg width="118" height="95" viewBox="0 0 118 95" fill="none" xmlns="http://www.w3.org/2000/svg">
<g clip-path="url(#clip0_293_29482)">
<g style="mix-blend-mode:multiply">
<path fill-rule="evenodd" clip-rule="evenodd" d="M56.0001 14.8373C55.0698 14.4096 29.8236 5.32615 27.9999 5.06627C24.5199 4.57035 21.1943 6.92276 19.406 9.95176L6.34125 32.1808C4.55292 35.2098 4.55292 38.9228 6.34125 41.9518L19.406 64.1808C21.1943 67.2098 24.4729 69.0663 27.9999 69.0663H56.0001C59.5271 69.0663 62.8057 67.2098 64.594 64.1808L77.6588 49.7686C79.4471 46.7395 79.4471 43.0266 77.6588 39.9976L64.594 20.4898C62.8057 17.4608 59.1144 16.269 56.0001 14.8373Z" fill="#20BEFF"/>
</g>
<g style="mix-blend-mode:multiply">
<path fill-rule="evenodd" clip-rule="evenodd" d="M57.2163 76.9816C71.8123 89.2292 93.8225 87.0284 106.377 72.0661C118.932 57.1038 110.38 43.2665 95.7835 31.0189C81.1874 18.7714 66.0752 12.7514 53.5204 27.7137C40.9655 42.6761 42.6202 64.7341 57.2163 76.9816Z" fill="#FAE041"/>
</g>
<path fill-rule="evenodd" clip-rule="evenodd" d="M39.9999 30.0019L87.6631 30.0313C89.32 30.0323 90.6623 31.3763 90.6613 33.0331C90.6613 33.0477 90.6611 33.0623 90.6609 33.0768L90.0783 71.4192C90.0533 73.0668 88.704 74.3858 87.0563 74.3735L39.9775 74.0222C38.3294 74.0099 36.9999 72.6704 36.9999 71.0223L36.998 33C36.998 31.3431 38.3412 30 39.998 30H39.9999V30.0019Z" fill="#202124" stroke="#202124"/>
<path fill-rule="evenodd" clip-rule="evenodd" d="M35.8129 74.1149L89 69V73.6553L69.5169 84.854C67.0772 86.2564 64.2922 86.9441 61.4801 86.8387L10.2367 84.9183C9.69938 84.8981 9.27417 84.4567 9.27417 83.919V82.8367L35.8129 74.1149Z" fill="white" stroke="#202124"/>
<path fill-rule="evenodd" clip-rule="evenodd" d="M34.2334 69H88.0916C88.6439 69 89.0916 69.4477 89.0916 70C89.0916 70.3654 88.8924 70.7016 88.5719 70.8771L68.1217 82.0747C65.8181 83.3361 63.2236 83.9705 60.5978 83.9145L10.1344 82.8382C9.58228 82.8264 9.14422 82.3692 9.15599 81.8171C9.16399 81.4423 9.3809 81.1035 9.71792 80.9394L34.2334 69Z" fill="white" stroke="#202124"/>
<path fill-rule="evenodd" clip-rule="evenodd" d="M37 29H86C87.6569 29 89 30.3431 89 32V69H34V32C34 30.3431 35.3431 29 37 29Z" fill="white" stroke="#202124"/>
<path d="M86 33H37V66H86V33Z" fill="white" stroke="#202124"/>
<path fill-rule="evenodd" clip-rule="evenodd" d="M34.0587 78.4219H46.2601C46.3706 78.4219 46.4601 78.5114 46.4601 78.6219C46.4601 78.693 46.4223 78.7588 46.3608 78.7946L41.5072 81.625C41.475 81.6438 41.4381 81.6532 41.4007 81.6522L30.1452 81.3287C30.0348 81.3255 29.9478 81.2334 29.951 81.123C29.9529 81.0569 29.9873 80.9961 30.0429 80.9604L33.9507 78.4535C33.983 78.4329 34.0204 78.4219 34.0587 78.4219Z" fill="white" stroke="#202124"/>
<path fill-rule="evenodd" clip-rule="evenodd" d="M35.0229 70.9395L81.7715 71.3835C81.8819 71.3845 81.9706 71.4749 81.9696 71.5854C81.9689 71.6573 81.9297 71.7232 81.8669 71.7582L73.0059 76.6921C72.9757 76.709 72.9417 76.7177 72.9071 76.7174L25.26 76.351C25.1495 76.3502 25.0607 76.2599 25.0615 76.1495C25.0621 76.0751 25.104 76.0071 25.1702 75.9731L34.9296 70.9615C34.9584 70.9467 34.9905 70.9392 35.0229 70.9395Z" fill="#202124" stroke="#202124"/>
<path d="M58.75 52.1502L55.6 49.0002L54.55 50.0502L58.75 54.2502L67.75 45.2502L66.7 44.2002L58.75 52.1502Z" fill="#202124"/>
</g>
<defs>
<clipPath id="clip0_293_29482">
<rect width="118" height="95" fill="white"/>
</clipPath>
</defs>
</svg>
